<svg width="606" height="200.35460487117935" viewBox="0 0 406 100.35460487117935" xmlns="http://www.w3.org/2000/svg">
	<defs id="SvgjsDefs10340">
		<linearGradient id="SvgjsLinearGradient10347">
			<stop id="SvgjsStop10348" stop-color="#2d388a" offset="0">
			</stop>
			<stop id="SvgjsStop10349" stop-color="#00aeef" offset="1">
			</stop>
		</linearGradient>
		<linearGradient id="SvgjsLinearGradient10350">
			<stop id="SvgjsStop10351" stop-color="#2d388a" offset="0">
			</stop>
			<stop id="SvgjsStop10352" stop-color="#00aeef" offset="1">
			</stop>
		</linearGradient>
		<linearGradient id="SvgjsLinearGradient10353">
			<stop id="SvgjsStop10354" stop-color="#2d388a" offset="0">
			</stop>
			<stop id="SvgjsStop10355" stop-color="#00aeef" offset="1">
			</stop>
		</linearGradient>
	</defs>
	<g id="SvgjsG10341" featurekey="symbolFeature-0" transform="matrix(1.2592966846462978,0,0,1.2592966846462978,-15.607723176759913,-13.110538100905758)" fill="url(#SvgjsLinearGradient10347)">
		<g xmlns="http://www.w3.org/2000/svg">
			<g>
				<polygon points="54.644,56.782 35.043,56.782 29.789,76.381 49.394,76.381   ">
				</polygon>
			</g>
			<g>
				<polygon points="29.789,76.381 16.071,76.381 12.394,90.102 26.115,90.102   ">
				</polygon>
			</g>
			<g>
				<polygon points="72.04,43.063 58.319,43.063 54.644,56.782 68.363,56.782   ">
				</polygon>
			</g>
			<g>
				<polygon points="60.892,33.458 51.288,33.458 48.716,43.063 58.319,43.063   ">
				</polygon>
			</g>
			<g>
				<polygon points="78.988,17.134 69.384,17.134 66.81,26.739 76.416,26.739   ">
				</polygon>
			</g>
			<g>
				<polygon points="37.616,47.18 28.013,47.18 25.438,56.782 35.043,56.782   ">
				</polygon>
			</g>
			<g>
				<polygon points="87.511,10.411 80.79,10.411 78.988,17.134 85.71,17.134   ">
				</polygon>
			</g>
			<g>
				<polygon points="80.562,36.341 73.842,36.341 72.04,43.063 78.762,43.063   ">
				</polygon>
			</g>
			<g>
				<polygon points="53.089,26.735 46.37,26.735 44.565,33.458 51.288,33.458   ">
				</polygon>
			</g>
		</g>
	</g>
	<g id="SvgjsG10342" featurekey="textGroupContainer" transform="matrix(1,0,0,1,405,6)" fill="url(#SvgjsLinearGradient10350)">
		<rect xmlns="http://www.w3.org/2000/svg" y="0" height="1" width="1" opacity="0">
		</rect>
		<rect xmlns="http://www.w3.org/2000/svg" y="0" x="-290" width="3" height="88">
		</rect>
	</g>
	<g id="SvgjsG10343" featurekey="nameFeature-0" transform="matrix(1.5773047005911225,0,0,1.5773047005911225,131.43957243984931,9.190007861676403)" fill="url(#SvgjsLinearGradient10353)">
		<path d="M0.9893 12.032 l4.3583 0 l0 23.77 l6.1497 0 l0 4.2246 l-9.8396 0 l0 -0.026738 l0 -4.1979 l0 -22.968 z M16.497301069518716 31.604300000000002 l3.7701 0 l-1.8717 -15.348 z M11.764701069518717 40.053476 l3.3422 -27.193 l-0.66845 -0.80214 l7.139 0 l3.4492 27.995 l-3.7166 0 l-0.50802 -4.2246 l-5.9091 -0.026738 l0.9893 0.7754 l-0.42781 3.4759 l-3.6898 0 z M29.999988770053477 23.824 l4.3048 0 l0 -7.6738 l-5.4011 0 l1.0963 0.82888 l0 6.8449 z M37.968288770053476 14.599 l0 10.802 c0 1.4973 -1.1497 2.6471 -2.6471 2.6471 l-0.50802 0 l3.1551 11.898 l-3.7968 0 l-3.1551 -11.898 l-2.1123 0 l1.0963 0.82888 l0 11.07 l-3.6898 0 l0 -23.797 l0 -3.3957 l-0.66845 -0.82888 l9.6791 0.026738 c1.4973 0 2.6471 1.1497 2.6471 2.6471 z M43.85024224598931 31.604300000000002 l3.7701 0 l-1.8717 -15.348 z M39.11764224598931 40.053476 l3.3422 -27.193 l-0.66845 -0.80214 l7.139 0 l3.4492 27.995 l-3.7166 0 l-0.50802 -4.2246 l-5.9091 -0.026738 l0.9893 0.7754 l-0.42781 3.4759 l-3.6898 0 z M50.48128454545456 12.032 l4.2781 0 l2.4866 20.107 l2.4599 -20.107 l3.6898 0 l-3.4225 27.995 l-5.4813 0 l-3.3155 -27.166 l-0.026738 0 z M65.21385989304814 12.861 l-0.66845 -0.82888 l10.508 0 l0 4.2246 l-7.246 0 l1.0963 0.82888 l0 6.8182 l4.3316 0 l0 4.2513 l-5.4278 0 l1.0963 0.80214 l0 6.8449 l6.1497 0 l0 4.2246 l-9.8396 0 l0 -4.2246 l0 -7.6471 l0 -4.2513 l0 -11.043 z M75.82887219251339 12.032 l4.3583 0 l0 23.77 l6.1497 0 l0 4.2246 l-9.8396 0 l0 -0.026738 l0 -4.1979 l0 -22.968 z M95.77540962566847 16.203 l1.0963 0.82888 l0 6.8449 l4.3316 0 l0 -7.6738 l-5.4278 0 z M95.77540962566847 28.102 l1.123 0.82888 l0 6.8449 l4.3048 0 l0 -7.6738 l-5.4278 0 z M104.86660962566847 14.652000000000001 l0 8.6898 c0 1.3904 -1.0695 2.5401 -2.4332 2.6203 l0 0.026738 c1.3636 0.13369 2.4332 1.2299 2.4332 2.6471 l0 8.7166 c0 1.4171 -1.1497 2.6471 -2.6471 2.6471 l-6.3636 0 c-1.4973 0 -2.6471 -1.2299 -2.6471 -2.6471 l0 -8.7166 c0 -1.4973 1.1497 -2.6471 2.6471 -2.6471 c-1.4973 0 -2.6471 -1.2299 -2.6471 -2.6471 l0 -8.6898 c0 -1.4973 1.1497 -2.6738 2.6471 -2.6738 l6.3636 0 c1.4973 0 2.6471 1.1765 2.6471 2.6738 z M116.95184117647061 28.182000000000002 l1.0963 0.80214 l0 6.8449 l4.3048 0 l0 -7.6471 l-5.4011 0 z M118.04814117647061 17.112 l0 6.8182 l4.3048 0 l0 -7.6471 l-5.4011 0 z M126.0429411764706 14.706 l0 8.6898 c0 1.4973 -1.2299 2.6471 -2.6471 2.6471 c1.4171 0 2.6471 1.2299 2.6471 2.6471 l0 8.7166 c0 1.4973 -1.2299 2.6471 -2.6471 2.6471 l-9.0374 0 l0 -27.193 l-0.66845 -0.80214 l9.7059 0 c1.4171 0 2.6471 1.2299 2.6471 2.6471 z M126.97860481283425 12.032 l4.3583 0 l0 23.77 l6.1497 0 l0 4.2246 l-9.8396 0 l0 -0.026738 l0 -4.1979 l0 -22.968 z M141.71119197860966 35.8021 l4.3316 0 l0 -19.545 l-5.4011 0 l1.0695 0.82888 l0 18.717 z M149.70549197860964 14.678999999999998 l0 22.701 c0 1.4973 -1.1497 2.6471 -2.6471 2.6471 l-6.3636 0 c-1.4973 0 -2.6471 -1.1497 -2.6471 -2.6471 l0 -22.701 c0 -1.4171 1.1497 -2.6471 2.6471 -2.6471 l6.3636 0 c1.4973 0 2.6471 1.2299 2.6471 2.6471 z M162.91452406417113 14.678999999999998 l0 7.1658 l-3.6631 0 l0 -5.5882 l-5.4011 0 l1.0695 0.82888 l0 18.717 l4.3316 0 l0 -11.07 l-1.0963 -0.82888 l4.7594 0 l0 16.123 l-9.0107 0 c-1.4973 0 -2.6471 -1.1497 -2.6471 -2.6471 l0 -22.701 c0 -1.4171 1.1497 -2.6471 2.6471 -2.6471 l6.3636 0 c1.4973 0 2.6471 1.2299 2.6471 2.6471 z">
		</path>
	</g>
</svg>
